<svg width="124" height="34" viewBox="0 0 124 34" fill="none" xmlns="http://www.w3.org/2000/svg">
<path d="M28.3487 27V7.42437H37.506C38.5378 7.42437 39.474 7.59156 40.3148 7.92594C41.165 8.26032 41.8577 8.71413 42.3927 9.28735C42.9373 9.86058 43.3529 10.5293 43.6395 11.2936C43.9356 12.0484 44.0837 12.8605 44.0837 13.7298C44.0837 14.5897 43.9356 15.397 43.6395 16.1517C43.3529 16.9065 42.9373 17.5752 42.3927 18.158C41.8481 18.7312 41.1555 19.185 40.3148 19.5194C39.474 19.8538 38.5378 20.021 37.506 20.021H32.5189V27H28.3487ZM32.5189 16.3523H36.9184C37.7591 16.3523 38.4518 16.1135 38.9963 15.6358C39.5505 15.1581 39.8275 14.5228 39.8275 13.7298C39.8275 12.9273 39.5505 12.2872 38.9963 11.8095C38.4518 11.3319 37.7591 11.093 36.9184 11.093H32.5189V16.3523ZM45.7031 19.892C45.7031 18.5258 46.0136 17.2791 46.6346 16.1517C47.2556 15.0244 48.1297 14.1311 49.2571 13.4719C50.3844 12.8031 51.6455 12.4687 53.0404 12.4687C55.1613 12.4687 56.8714 13.1901 58.1707 14.6327C59.4796 16.0657 60.134 17.9383 60.134 20.2503V21.1244H49.601C49.7348 22.0416 50.1599 22.8011 50.8764 23.403C51.593 24.0049 52.5292 24.3058 53.6852 24.3058C54.3158 24.3058 54.9893 24.1816 55.7059 23.9332C56.4319 23.6753 57.0099 23.3361 57.4399 22.9158L59.1022 25.3806C58.4143 26.0112 57.5497 26.4984 56.5084 26.8424C55.4766 27.1863 54.397 27.3583 53.2696 27.3583C51.0818 27.3583 49.2714 26.6752 47.8383 25.309C46.4148 23.9332 45.7031 22.1276 45.7031 19.892ZM49.5723 18.5449H56.5514C56.5227 18.1819 56.4367 17.8332 56.2934 17.4988C56.1501 17.1644 55.9447 16.8444 55.6772 16.5386C55.4192 16.2329 55.061 15.9893 54.6024 15.8078C54.1438 15.6167 53.6231 15.5212 53.0404 15.5212C52.4862 15.5212 51.9894 15.6119 51.55 15.7935C51.1105 15.975 50.757 16.2186 50.4895 16.5243C50.222 16.8205 50.0118 17.1405 49.859 17.4845C49.7061 17.8188 49.6106 18.1723 49.5723 18.5449ZM62.8282 27V12.827H66.5541V14.733C67.0987 14.0833 67.777 13.5435 68.5891 13.1136C69.4107 12.6837 70.2419 12.4687 71.0826 12.4687V16.1087C70.8247 16.0514 70.4807 16.0227 70.0508 16.0227C69.4203 16.0227 68.7563 16.1852 68.0588 16.51C67.3614 16.8253 66.8599 17.2026 66.5541 17.6421V27H62.8282ZM71.5555 27L76.5999 19.72L71.8421 12.827H76.0123L78.9501 17.1692L81.8592 12.827H86.0295L81.3003 19.72L86.3447 27H82.1745L78.9501 22.2136L75.6971 27H71.5555ZM87.2905 19.892C87.2905 18.5258 87.601 17.2791 88.222 16.1517C88.843 15.0244 89.7172 14.1311 90.8445 13.4719C91.9719 12.8031 93.233 12.4687 94.6278 12.4687C96.7488 12.4687 98.4589 13.1901 99.7582 14.6327C101.067 16.0657 101.721 17.9383 101.721 20.2503V21.1244H91.1885C91.3222 22.0416 91.7474 22.8011 92.4639 23.403C93.1804 24.0049 94.1167 24.3058 95.2727 24.3058C95.9032 24.3058 96.5768 24.1816 97.2933 23.9332C98.0194 23.6753 98.5974 23.3361 99.0273 22.9158L100.69 25.3806C100.002 26.0112 99.1372 26.4984 98.0958 26.8424C97.064 27.1863 95.9845 27.3583 94.8571 27.3583C92.6693 27.3583 90.8589 26.6752 89.4258 25.309C88.0023 23.9332 87.2905 22.1276 87.2905 19.892ZM91.1598 18.5449H98.1388C98.1102 18.1819 98.0242 17.8332 97.8809 17.4988C97.7376 17.1644 97.5322 16.8444 97.2647 16.5386C97.0067 16.2329 96.6484 15.9893 96.1899 15.8078C95.7313 15.6167 95.2106 15.5212 94.6278 15.5212C94.0737 15.5212 93.5769 15.6119 93.1374 15.7935C92.698 15.975 92.3445 16.2186 92.077 16.5243C91.8095 16.8205 91.5993 17.1405 91.4464 17.4845C91.2936 17.8188 91.198 18.1723 91.1598 18.5449ZM104.416 27V7.42437H108.142V27H104.416ZM110.606 25.1513L112.226 22.4572C112.78 22.9826 113.52 23.4412 114.447 23.8329C115.383 24.2246 116.277 24.4205 117.127 24.4205C117.91 24.4205 118.503 24.2867 118.904 24.0192C119.305 23.7422 119.506 23.3744 119.506 22.9158C119.506 22.6101 119.348 22.3569 119.033 22.1562C118.727 21.9556 118.326 21.798 117.829 21.6833C117.342 21.5687 116.797 21.4588 116.195 21.3537C115.603 21.2391 115.006 21.0862 114.404 20.8952C113.812 20.7041 113.267 20.4605 112.77 20.1643C112.283 19.8681 111.882 19.4478 111.567 18.9032C111.261 18.3491 111.108 17.6946 111.108 16.9399C111.108 15.6884 111.624 14.6327 112.656 13.7728C113.688 12.9034 115.106 12.4687 116.912 12.4687C119.09 12.4687 120.991 13.1136 122.616 14.4034L121.111 17.0545C120.662 16.5864 120.055 16.1947 119.291 15.8794C118.536 15.5642 117.743 15.4065 116.912 15.4065C116.243 15.4065 115.703 15.5355 115.293 15.7935C114.891 16.0514 114.691 16.381 114.691 16.7823C114.691 17.0307 114.81 17.2408 115.049 17.4128C115.288 17.5752 115.603 17.7042 115.995 17.7997C116.396 17.8857 116.845 17.986 117.342 18.1007C117.848 18.2153 118.364 18.33 118.89 18.4446C119.425 18.5497 119.94 18.7217 120.437 18.9605C120.944 19.1898 121.393 19.4573 121.784 19.763C122.186 20.0688 122.506 20.4843 122.745 21.0098C122.983 21.5353 123.103 22.1419 123.103 22.8298C123.103 24.1673 122.553 25.2564 121.455 26.0972C120.366 26.9379 118.861 27.3583 116.941 27.3583C115.708 27.3583 114.528 27.1624 113.401 26.7707C112.283 26.379 111.352 25.8392 110.606 25.1513Z" fill="#34296B"/>
<g clip-path="url(#clip0)">
<path fill-rule="evenodd" clip-rule="evenodd" d="M9.1426 19.1893V28.8216H7.91206V30.1478H1.23054V28.8216H0V18.2118V7.60205H12.3206H13.3325V8.88072H15.4122V10.6825H17.0547V16.4101H15.4122V17.9107H13.3325V19.1893H9.1426Z" fill="#34296B"/>
<path fill-rule="evenodd" clip-rule="evenodd" d="M17.97 6.42387V3.71859H14.8123V3H3.72217V5.64716H14.8123V6.43444H16.831V9.18728H19.8107V6.42387H17.97Z" fill="#34296B"/>
<path d="M9.1426 19.1893V28.8216H7.91206V30.1478H1.23054V28.8216H0V18.2118V7.60205H12.3206H13.3325V8.88072H15.4122V10.6825H17.0547V16.4101H15.4122V17.9107H13.3325V19.1893H9.1426Z" fill="#34296B"/>
<path d="M17.97 6.42387V3.71859H14.8123V3H3.72217V5.64716H14.8123V6.43444H16.831V9.18728H19.8107V6.42387H17.97Z" fill="#34296B"/>
</g>
<defs>
<clipPath id="clip0">
<rect width="19.8107" height="27.1479" fill="white" transform="translate(0 3)"/>
</clipPath>
</defs>
</svg>
